<svg height="511pt" viewBox="-32 0 511 511.77967" width="511pt" xmlns="http://www.w3.org/2000/svg"><path d="m143.839844 184.539062c-.96875.707032-1.851563 1.324219-2.734375 1.941407-12.976563 8.476562-15.359375 24.367187-14.390625 38.3125l-3.265625.089843h-46.875c-3.664063-.011718-6.941407-2.300781-8.207031-5.738281l-22.246094-59.144531c-1.269532-3.441406-4.542969-5.730469-8.210938-5.738281h-13.992187c-3.78125-.027344-7.140625-2.429688-8.386719-6.003907l-11.738281-35.308593c-.914063-2.699219-.464844-5.671875 1.195312-7.984375 1.664063-2.308594 4.339844-3.675782 7.1875-3.667969h27.542969c2.738281-.015625 5.320312 1.261719 6.976562 3.441406l56.496094 72.5625c1.652344 2.179688 4.234375 3.457031 6.972656 3.441407h30.984376zm0 0" fill="#285680"/><path d="m208.414062 398.960938c-7.679687 15.097656 3.621094 25.867187 11.386719 31.160156 3.5 2.332031 4.804688 6.847656 3.089844 10.683594l-29.835937 65.855468c-1.449219 3.128906-4.585938 5.125-8.03125 5.117188h-76.800782c-3.0625.042968-5.917968-1.527344-7.527344-4.128906-1.609374-2.605469-1.734374-5.863282-.328124-8.582032l12.621093-23.835937c2.0625-3.765625 6.503907-5.539063 10.59375-4.234375l31.867188 10.0625c20.570312-27.894532-2.914063-38.664063-9.179688-43.695313-6.269531-5.035156-28.867187-22.070312-23.394531-71.417969 5.207031-46.253906 52.523438-53.050781 58.4375-53.671874h.089844c26.128906 11.566406 65.324218 26.042968 71.152344 43.34375 4.324218 12.800781-8.917969 24.101562-4.414063 33.8125-9.800781-1.679688-32.839844-3.972657-39.726563 9.53125zm0 0" fill="#285680"/><path d="m446.757812 216.761719s-8.824218 17.300781-44.136718 8.648437c-35.308594-8.648437-8.828125-52.082031-35.308594-60.734375-26.484375-8.648437-52.964844 17.390625-17.65625 52.085938 35.308594 34.691406 8.828125 60.730469-8.828125 86.773437-17.65625 26.042969-17.65625 34.691406-8.828125 69.386719 5.285156 18.9375 19.285156 34.222656 37.695312 41.136719 3.710938 1.605468 5.828126 5.550781 5.121094 9.53125l-15.007812 80.949218c-.785156 4.171876-4.410156 7.203126-8.652344 7.238282h-66.648438c-3.03125.054687-5.871093-1.472656-7.496093-4.035156-1.621094-2.558594-1.792969-5.78125-.449219-8.5l8.828125-17.300782c1.511719-2.996094 4.589844-4.878906 7.945313-4.855468h29.835937c0-17.390626 0-26.042969-26.480469-34.691407-19.949218-6.621093-34.871094-23.042969-48.550781-52.964843-5.015625-11.027344-9.433594-22.3125-13.242187-33.8125-5.828126-17.300782-27.367188-31.777344-53.496094-43.34375h-.089844c-36.308594-14.824219-74.058594-25.859376-112.636719-32.925782-2.566406-.476562-5.207031.214844-7.207031 1.890625-1.996094 1.671875-3.144531 4.152344-3.121094 6.761719v2.382812c0 2.917969-1.460937 5.644532-3.894531 7.261719-2.429687 1.613281-5.511719 1.902344-8.199219.769531l-40.519531-17.035156c-2.316406-.972656-4.101563-2.898437-4.898437-5.285156-.7929692-2.382812-.519532-4.992188.75-7.164062l10.0625-17.300782c1.605468-2.664062 4.480468-4.304687 7.589843-4.324218h98.164063c2.667968-.019532 5.179687-1.25 6.828125-3.347657 1.652343-2.09375 2.257812-4.828125 1.648437-7.421875-1.277344-5.308594-2.101562-10.710937-2.472656-16.15625-.972656-13.945312 1.410156-29.835937 14.386719-38.3125.882812-.617187 1.765625-1.234375 2.738281-1.941406 11.949219-9.976562 22.492188-21.527344 31.335938-34.339844.089843-.085937.179687-.085937.179687-.175781l4.414063-6.003906c.96875-1.410157 1.941406-2.824219 2.824218-4.234375.792969-1.058594 1.410156-2.03125 2.117188-3.003906h-.175782v.089843c-9.511718 2.367188-18.789062 5.585938-27.71875 9.621094-8.191406 3.285156-16.050781 7.335937-23.480468 12.09375-9.710938 7.414063-15.273438-19.507813-16.683594-24.980469-3.621094-14.214844 24.097656-15.097656 31.953125-14.300781 4.988281.902344 9.980469-1.550781 12.3125-6.050781s1.453125-9.996094-2.160156-13.546875c-8.828125-8.738281-17.65625-8.738281-35.308594 0-14.300781 6.972656-28.515625-14.300781-33.457031-22.777344-1.171875-1.917969-.671875-4.414063 1.148437-5.734375 13.003907-9.035156 26.765625-16.921875 41.132813-23.570312 35.3125-17.390626 79.449218 0 79.449218 0 0-16.863282-25.863281-26.394532-44.046874-30.984376-1.960938-.511718-3.320313-2.292968-3.300782-4.316406.023438-2.027344 1.417969-3.777344 3.386719-4.246094 27.1875-5.828124 79.449219-9.976562 114.582031 30.894532 52.613282 61.085937 8.828125 104.078125 0 138.769531-3.738281 12.832031-3.335937 26.515625 1.148438 39.105469.792968 1.914062.152344 4.121094-1.546875 5.308594-1.695313 1.1875-3.988281 1.039062-5.515625-.363282-23.128906-20.746094-29.394532-70.003906-29.394532-70.003906-8.828124 121.46875 61.792969 138.769531 61.792969 138.769531 52.964844-43.34375 8.828125-43.34375 0-86.773437-8.828125-43.433594 26.480469-60.734375 52.964844-60.734375 26.480469 0 52.964844 8.738281 52.964844 43.429687 0 34.695313 35.308593 34.695313 35.308593 34.695313zm0 0" fill="#4482c3"/><g fill="#285680"><path d="m201.441406 100.324219c-.351562.617187-8.210937 14.035156-20.128906 32.042969h-.085938v.089843c-9.511718 2.367188-18.789062 5.585938-27.71875 9.621094.175782-.265625.351563-.441406.441407-.617187 15.890625-23.128907 32.132812-49.875 32.21875-50.050782 2.488281-4.195312 7.902343-5.578125 12.09375-3.089844 2.027343 1.15625 3.507812 3.078126 4.105469 5.335938.597656 2.257812.261718 4.660156-.925782 6.667969zm0 0"/><path d="m155.449219 79.226562c-4.097657.007813-7.664063-2.808593-8.609375-6.796874-.941406-3.988282.984375-8.101563 4.65625-9.929688l17.652344-8.828125c4.363281-2.179687 9.667968-.410156 11.847656 3.953125 2.179687 4.363281.410156 9.667969-3.953125 11.847656l-17.65625 8.828125c-1.222657.609375-2.570313.925781-3.9375.925781zm0 0"/></g></svg>